<svg
    aria-label="AC Logo"
    className="w-1/2 h-1/2"
    viewBox="0 0 394 342"
    fill="none"
    xmlns="http://www.w3.org/2000/svg"
>
    <path
        d="M58.5787 341.421C30.6082 313.451 11.5601 277.814 3.84303 239.018C-3.87401 200.222 0.0866567 160.009 15.2242 123.463C30.3617 86.9181 55.9962 55.6824 88.886 33.7061C121.776 11.7298 160.444 0 200 0C239.556 0 278.224 11.7298 311.114 33.7061C344.004 55.6824 369.638 86.9181 384.776 123.463C387.162 129.224 389.271 135.077 391.1 141H370.056C368.903 137.676 367.65 134.38 366.298 131.117C352.675 98.2263 329.604 70.1141 300.003 50.3355C270.402 30.5568 235.601 20 200 20C164.399 20 129.598 30.5568 99.9975 50.3355C70.3966 70.1141 47.3255 98.2263 33.7018 131.117C20.078 164.008 16.5134 200.2 23.4587 235.116C29.1403 263.679 38.8216 288.48 55.9371 310.34L199.5 64.5L343.679 309.792C357.593 292.218 366.793 272.862 372.804 251H393.388C384.387 285.135 366.487 316.356 341.421 341.421L331 324C331.035 323.965 331.071 323.929 331.106 323.894L199.5 103L59.5 340.5L59.2664 340.248L58.5787 341.421Z"
        fill="white"
    />
</svg>